<?xml version="1.0" encoding="UTF-8" standalone="no"?>
<!-- Created with Inkscape (http://www.inkscape.org/) -->

<svg
   width="210mm"
   height="297mm"
   viewBox="0 0 210 297"
   version="1.1"
   id="svg1"
   xml:space="preserve"
   inkscape:version="1.4.3 (0d15f75, 2025-12-25)"
   sodipodi:docname="silhouette1.svg"
   xmlns:inkscape="http://www.inkscape.org/namespaces/inkscape"
   xmlns:sodipodi="http://sodipodi.sourceforge.net/DTD/sodipodi-0.dtd"
   xmlns="http://www.w3.org/2000/svg"
   xmlns:svg="http://www.w3.org/2000/svg"><sodipodi:namedview
     id="namedview1"
     pagecolor="#ffffff"
     bordercolor="#000000"
     borderopacity="0.25"
     inkscape:showpageshadow="2"
     inkscape:pageopacity="0.0"
     inkscape:pagecheckerboard="0"
     inkscape:deskcolor="#d1d1d1"
     inkscape:document-units="mm"
     inkscape:zoom="0.78216891"
     inkscape:cx="378.43488"
     inkscape:cy="405.2833"
     inkscape:window-width="1904"
     inkscape:window-height="1011"
     inkscape:window-x="8"
     inkscape:window-y="33"
     inkscape:window-maximized="0"
     inkscape:current-layer="layer1" /><defs
     id="defs1" /><g
     inkscape:label="Layer 1"
     inkscape:groupmode="layer"
     id="layer1"><path
       style="fill:#000000;stroke-width:0.741084"
       d="M -14.152861,118.17696 V 1.9024512 h 130.000001 130 V 118.17696 234.45148 h -130 -130.000001 z M 168.5846,177.1596 c 0.33129,-0.35559 0.39979,-0.69045 0.39979,-1.95404 0,-1.41814 -0.0614,-1.64549 -0.87641,-3.24733 -0.66051,-1.29811 -1.37297,-2.26599 -2.89215,-3.92894 -2.2982,-2.51567 -2.91604,-2.92766 -9.07457,-6.0509 -2.04902,-1.03914 -4.12255,-2.21617 -4.60784,-2.61561 -0.4853,-0.39945 -1.32354,-1.02439 -1.86274,-1.38877 -0.53922,-0.36438 -1.43999,-1.01925 -2.0017,-1.45526 -2.09818,-1.62867 -4.31205,-3.25354 -5.54399,-4.06899 -0.69914,-0.46277 -1.47721,-1.15025 -1.72903,-1.52769 -0.25182,-0.37746 -0.62779,-0.77733 -0.83549,-0.88862 -0.20768,-0.11124 -0.81981,-0.92088 -1.36026,-1.79909 -1.24567,-2.02414 -2.65021,-3.56227 -4.29537,-4.7039 -1.49104,-1.03468 -5.3126,-4.84797 -5.3126,-5.3011 0,-0.63727 -1.45571,-3.29536 -2.29768,-4.19549 -0.48299,-0.51635 -1.31066,-1.21636 -1.83926,-1.55555 -0.5286,-0.33921 -0.9611,-0.72486 -0.9611,-0.857 0,-0.13216 0.48459,-0.77576 1.07687,-1.43025 1.13801,-1.25754 1.72648,-2.38269 1.95567,-3.73928 0.0765,-0.45312 0.16823,-0.82384 0.20374,-0.82384 0.0355,0 0.48848,0.18172 1.00662,0.40382 0.75323,0.32287 1.0365,0.3608 1.4131,0.18922 0.42775,-0.1949 0.46053,-0.2995 0.35685,-1.13912 -0.0627,-0.50848 -0.17222,-1.16716 -0.24322,-1.46372 -0.12763,-0.53318 -0.11818,-0.53923 0.84476,-0.53923 1.53855,0 2.71232,-1.00456 3.26822,-2.79706 0.0591,-0.19034 0.31185,-0.42383 0.56179,-0.51886 0.64925,-0.24684 1.39736,-1.41735 2.53423,-3.96514 1.2423,-2.78406 1.5239,-4.25744 1.66272,-8.69933 0.11874,-3.80003 -0.10909,-6.55768 -0.62409,-7.553567 -0.36235,-0.70071 -0.23809,-1.29638 0.30649,-1.46922 0.4522,-0.14352 0.50228,-0.73144 0.0913,-1.07246 -0.15992,-0.13272 -0.37944,-0.5625 -0.48784,-0.95507 -0.18303,-0.66286 -0.10637,-0.90058 1.07508,-3.334114 0.69968,-1.44119 1.27215,-2.71243 1.27215,-2.82495 0,-0.11248 0.20318,-0.47762 0.45152,-0.81132 1.55048,-2.08354 1.68165,-3.04091 0.58328,-4.25668 -0.72904,-0.80696 -0.72996,-0.81019 -0.77272,-2.73128 -0.0328,-1.47529 0.0229,-1.97798 0.23971,-2.15783 0.38916,-0.32295 0.35373,-0.71465 -0.10966,-1.21202 -0.48026,-0.51551 -0.48407,-0.94391 -0.0197,-2.20972 0.19785,-0.53922 0.59349,-1.622612 0.8792,-2.407543 0.83594,-2.29668 2.46766,-8.811084 2.58518,-10.321039 0.24796,-3.185689 0.72515,-6.332266 1.06947,-7.052106 0.27283,-0.570362 0.66267,-0.926585 1.55574,-1.421569 0.65544,-0.36327 1.40063,-0.660491 1.65599,-0.660491 0.43907,0 2.6662,-1.637889 2.6662,-1.960791 0,-0.426403 -0.58459,-0.60763 -1.31015,-0.406153 -1.52309,0.42294 -1.72281,0.171912 -1.15695,-1.454098 0.31617,-0.90853 0.41143,-0.971846 1.97691,-1.313991 0.99531,-0.217529 1.18653,-0.328139 1.24174,-0.718283 0.0623,-0.439905 0.0269,-0.454674 -0.76734,-0.320487 l -0.83261,0.140669 0.4242,-0.539287 c 0.68204,-0.867074 0.40774,-1.764063 -0.31762,-1.03869 -0.48366,0.483653 -0.38823,0.01904 0.16539,-0.805291 0.65293,-0.972196 0.69434,-1.158505 0.29182,-1.312967 -0.18036,-0.0692 -0.73098,0.367946 -1.50324,1.193492 -1.23397,1.319118 -2.71583,2.361444 -3.15102,2.216384 -0.15385,-0.05129 -0.21969,-0.423864 -0.18624,-1.054053 0.0411,-0.774807 -0.0304,-1.049125 -0.34907,-1.337456 -0.5788,-0.523807 -0.92942,-0.138507 -1.03526,1.137631 -0.0676,0.814845 -0.26724,1.316127 -0.90415,2.269908 -0.44959,0.673261 -0.91434,1.590494 -1.0328,2.038297 -0.23917,0.904204 -0.76358,2.051554 -1.38131,3.022153 -0.2238,0.351637 -0.47586,1.195345 -0.56014,1.874906 -0.10254,0.827163 -0.74433,2.730882 -1.94152,5.759437 -0.98355,2.488128 -1.78829,4.626744 -1.78829,4.752477 0,0.125734 -0.13461,0.488933 -0.29914,0.807106 -0.36078,0.697679 -0.76779,0.729982 -2.34791,0.186342 -1.35606,-0.466553 -2.62527,-0.498824 -3.93942,-0.100168 -0.5294,0.160598 -1.45388,0.292951 -2.0544,0.294118 -1.52354,0.0029 -2.84974,0.446315 -4.05884,1.356882 -0.56818,0.427893 -1.22994,0.837773 -1.47059,0.910843 -1.41414,0.429397 -3.08459,2.95169 -3.08459,4.657584 0,0.470004 -0.10128,1.358894 -0.22509,1.975314 -0.44108,2.19634 0.60897,5.0262 2.67561,7.21072 2.30963,2.44138 2.30465,2.43414 2.03719,2.94865 -0.12922,0.24857 -0.29712,0.58429 -0.37311,0.74605 -0.1005,0.21402 -0.47939,0.2978 -1.3911,0.30766 -1.54408,0.0166 -2.36156,0.41427 -3.07526,1.49568 -0.90098,1.36516 -1.71643,2.11823 -2.29368,2.11823 -0.2903,0 -1.37724,0.48528 -2.41545,1.07843 -1.03821,0.59313 -2.0007,1.078434 -2.13887,1.078434 -0.13817,0 -0.25122,0.17647 -0.25122,0.39216 0,0.24925 0.13072,0.39216 0.3587,0.39216 0.24588,0 0.3538,0.13876 0.34313,0.44117 -0.0113,0.30836 0.0898,0.43264 0.33445,0.4128 0.27269,-0.022 0.30145,0.0302 0.13018,0.23651 -0.26524,0.31961 -0.0841,0.67422 0.34441,0.67422 0.17121,0 0.77655,-0.30883 1.3452,-0.68627 1.19437,-0.79278 1.54057,-0.86425 1.35505,-0.27972 -0.0875,0.27582 -0.013,0.49449 0.23188,0.68003 0.19951,0.15117 0.25439,0.27628 0.12272,0.27972 -0.5631,0.0148 -0.68383,0.7867 -0.36394,2.32703 0.74384,3.581797 0.74218,3.568817 0.49626,3.865107 -0.12994,0.15658 -0.38319,0.28469 -0.56279,0.28469 -0.1796,0 -0.62568,0.24973 -0.99128,0.55496 -0.64203,0.53599 -0.66533,0.60461 -0.68138,2.00759 -0.0147,1.2876 -0.0609,1.46086 -0.40627,1.52497 -0.79644,0.14783 -0.9293,0.43263 -0.78791,1.68894 0.1443,1.28212 0.99371,3.01996 1.7272,3.53371 0.68279,0.47825 0.13887,0.7945 -1.29073,0.75043 -1.58944,-0.049 -2.70861,0.20688 -4.18724,0.95726 -1.11419,0.56543 -1.25631,0.59288 -1.83282,0.35409 -0.34373,-0.14238 -1.21992,-0.79607 -1.94707,-1.45266 -1.95598,-1.76616 -7.093683,-5.45291 -8.802753,-6.31675 -0.63205,-0.31947 -2.63314,-1.56396 -4.73892,-2.94717 -0.37745,-0.24794 -0.86274,-0.71947 -1.07843,-1.04789 -0.21569,-0.3284 -0.94095,-1.08364 -1.6117,-1.67832 -1.08932,-0.965759 -1.35574,-1.363787 -2.49485,-3.727207 -1.31679,-2.73206 -1.69315,-3.32787 -3.29336,-5.213754 -0.95243,-1.12248 -4.99649,-4.5214 -6.61969,-5.56369 -1.25401,-0.80522 -4.72345,-3.45982 -6.56864,-5.02588 -1.64976,-1.40021 -2.3773,-2.21018 -2.90931,-3.23899 -0.17692,-0.34212 -0.48516,-0.67393 -0.68497,-0.73734 -0.6886,-0.21856 -1.23442,-1.0457 -1.82133,-2.760088 -1.10154,-3.217605 -2.94413,-6.350803 -4.32166,-7.348678 -0.99066,-0.717633 -3.15032,-1.312845 -3.74812,-1.033001 -0.2399,0.112298 -0.8107,0.316444 -1.26845,0.45365 -1.22659,0.367653 -1.59487,1.099976 -1.53905,3.060385 0.0626,2.197985 0.70415,3.530437 2.14303,4.450877 1.48569,0.950385 1.98121,1.552305 2.40704,2.923865 0.31671,1.0201 0.49792,1.27884 1.25263,1.78854 0.48529,0.32774 1.50572,1.23713 2.26761,2.02085 1.09904,1.13051 1.75047,1.60402 3.15285,2.29166 1.47767,0.72457 1.93913,1.07095 2.81343,2.11191 1.36422,1.62425 3.22882,4.47864 4.52789,6.93146 1.27574,2.408744 2.61854,4.518344 4.43241,6.963484 1.71801,2.315927 4.18062,6.094737 4.87635,7.482647 0.36615,0.73043 1.33181,1.83924 3.21458,3.69113 4.47456,4.40112 10.13913,10.83043 14.70428,16.68937 1.541273,1.97808 1.786013,2.44378 2.461063,4.68318 0.1788,0.59313 0.62509,1.69608 0.99176,2.45098 0.54796,1.12815 0.90311,1.55826 1.99458,2.41554 2.0163,1.58368 5.2352,3.66489 9.7596,6.31014 2.24969,1.31531 4.89053,2.90844 5.86854,3.5403 0.978,0.63185 3.49879,2.15845 5.60173,3.39244 3.06575,1.79898 3.94765,2.41266 4.44982,3.09652 0.34447,0.4691 0.89163,1.16767 1.21591,1.5524 0.32428,0.38473 0.91031,1.26708 1.3023,1.96079 0.9807,1.73557 1.83611,2.73236 3.27578,3.81715 1.43286,1.07966 2.57213,1.63056 4.81182,2.32679 1.77976,0.55325 8.9763,4.58291 9.85283,5.51703 0.43346,0.46193 0.48561,0.69195 0.50222,2.21475 0.0102,0.93463 0.12047,1.94769 0.2451,2.25128 0.12461,0.30359 0.22656,0.71771 0.22656,0.92025 0,0.49252 0.73257,0.97975 1.46521,0.9745 1.09735,-0.008 3.91888,-0.74205 4.83798,-1.25892 l 0.91102,-0.51232 0.75565,0.43409 c 1.24065,0.7127 2.17755,1.51046 2.62593,2.23596 0.47359,0.76627 1.28318,1.26229 2.06029,1.26229 0.28528,0 0.75289,0.16389 1.03915,0.3642 1.06179,0.74299 1.99077,0.81056 2.57165,0.18706 z"
       id="path1" /><text
       xml:space="preserve"
       style="font-style:normal;font-variant:normal;font-weight:normal;font-stretch:normal;font-size:16.3859px;font-family:Cinzel;-inkscape-font-specification:'Cinzel, @wght=700';font-variant-ligatures:normal;font-variant-caps:normal;font-variant-numeric:normal;font-variant-east-asian:normal;font-variation-settings:'wght' 700;writing-mode:lr-tb;direction:ltr;fill:#ffffff;stroke-width:0.206724"
       x="56.045231"
       y="203.16481"
       id="text1"><tspan
         sodipodi:role="line"
         id="tspan1"
         x="56.045231"
         y="203.16481"
         style="font-style:normal;font-variant:normal;font-weight:normal;font-stretch:normal;font-size:16.3859px;font-family:Cinzel;-inkscape-font-specification:'Cinzel, @wght=700';font-variant-ligatures:normal;font-variant-caps:normal;font-variant-numeric:normal;font-variant-east-asian:normal;font-variation-settings:'wght' 700;stroke-width:0.206724">ballet is art </tspan></text><text
       xml:space="preserve"
       style="font-style:normal;font-variant:normal;font-weight:normal;font-stretch:normal;font-size:7.82718px;font-family:Cinzel;-inkscape-font-specification:'Cinzel, Normal';font-variant-ligatures:normal;font-variant-caps:normal;font-variant-numeric:normal;font-variant-east-asian:normal;writing-mode:lr-tb;direction:ltr;fill:#ffffff;stroke-width:0.0987475"
       x="85.893555"
       y="218.60777"
       id="text2"><tspan
         sodipodi:role="line"
         id="tspan2"
         style="font-style:normal;font-variant:normal;font-weight:normal;font-stretch:normal;font-size:7.82718px;font-family:Cinzel;-inkscape-font-specification:'Cinzel, Normal';font-variant-ligatures:normal;font-variant-caps:normal;font-variant-numeric:normal;font-variant-east-asian:normal;stroke-width:0.0987475"
         x="85.893555"
         y="218.60777">POPO Ballet</tspan></text><text
       xml:space="preserve"
       style="font-style:normal;font-variant:normal;font-weight:normal;font-stretch:normal;font-size:16.3859px;font-family:Cinzel;-inkscape-font-specification:'Cinzel, @wght=700';font-variant-ligatures:normal;font-variant-caps:normal;font-variant-numeric:normal;font-variant-east-asian:normal;font-variation-settings:'wght' 700;writing-mode:lr-tb;direction:ltr;fill:#ffffff;stroke-width:0.264583"
       x="148.83827"
       y="250.65718"
       id="text3"><tspan
         sodipodi:role="line"
         id="tspan3"
         style="stroke-width:0.264583"
         x="148.83827"
         y="250.65718"> </tspan></text></g></svg>
